<svg xmlns="http://www.w3.org/2000/svg" xmlns:xlink="http://www.w3.org/1999/xlink" width="1000" zoomAndPan="magnify" viewBox="0 0 750 449.999984" height="600" preserveAspectRatio="xMidYMid meet" version="1.0"><defs><g/><clipPath id="e5ce6a767a"><rect x="0" width="326" y="0" height="192"/></clipPath><clipPath id="28e5c349b5"><rect x="0" width="473" y="0" height="377"/></clipPath></defs><g transform="matrix(1, 0, 0, 1, 337, 198)"><g clip-path="url(#e5ce6a767a)"><g fill="#b81327" fill-opacity="1"><g transform="translate(1.933488, 146.189488)"><g><path d="M 54.140625 -140.203125 L 28.15625 -140.203125 L 28.15625 -76.921875 L 38.90625 -76.921875 C 40.9375 -76.921875 42.609375 -77.726562 43.921875 -79.34375 C 45.242188 -80.957031 46.234375 -82.925781 46.890625 -85.25 C 47.546875 -87.582031 47.992188 -89.914062 48.234375 -92.25 C 48.472656 -94.582031 48.59375 -96.550781 48.59375 -98.15625 C 48.59375 -99.769531 48.59375 -100.578125 48.59375 -100.578125 L 51.453125 -100.578125 L 51.453125 -50.03125 L 48.59375 -50.03125 C 48.59375 -50.03125 48.5625 -51.222656 48.5 -53.609375 C 48.4375 -56.003906 48.164062 -58.753906 47.6875 -61.859375 C 47.207031 -64.960938 46.28125 -67.707031 44.90625 -70.09375 C 43.539062 -72.488281 41.601562 -73.6875 39.09375 -73.6875 L 28.15625 -73.6875 L 28.15625 -3.59375 L 54.140625 -3.59375 C 56.773438 -3.59375 59.046875 -4.726562 60.953125 -7 C 62.867188 -9.269531 64.425781 -12.195312 65.625 -15.78125 C 66.820312 -19.363281 67.773438 -23.125 68.484375 -27.0625 C 69.203125 -31.007812 69.738281 -34.773438 70.09375 -38.359375 C 70.457031 -41.953125 70.695312 -44.882812 70.8125 -47.15625 C 70.9375 -49.425781 71 -50.5625 71 -50.5625 L 73.875 -50.5625 L 71 0 L 3.9375 0 L 3.9375 -3.59375 C 3.9375 -3.59375 4.742188 -3.617188 6.359375 -3.671875 C 7.972656 -3.734375 9.851562 -3.941406 12 -4.296875 C 14.15625 -4.660156 16.070312 -5.410156 17.75 -6.546875 C 19.425781 -7.679688 20.320312 -9.320312 20.4375 -11.46875 L 20.4375 -132.328125 C 20.320312 -134.472656 19.425781 -136.113281 17.75 -137.25 C 16.070312 -138.382812 14.15625 -139.128906 12 -139.484375 C 9.851562 -139.847656 7.972656 -140.054688 6.359375 -140.109375 C 4.742188 -140.171875 3.9375 -140.203125 3.9375 -140.203125 L 3.9375 -143.796875 L 71 -143.796875 L 73.875 -93.234375 L 71 -93.234375 C 71 -93.234375 70.9375 -94.367188 70.8125 -96.640625 C 70.695312 -98.910156 70.457031 -101.835938 70.09375 -105.421875 C 69.738281 -109.015625 69.203125 -112.78125 68.484375 -116.71875 C 67.773438 -120.664062 66.820312 -124.429688 65.625 -128.015625 C 64.425781 -131.597656 62.867188 -134.523438 60.953125 -136.796875 C 59.046875 -139.066406 56.773438 -140.203125 54.140625 -140.203125 Z M 54.140625 -140.203125 "/></g></g></g><g fill="#b81327" fill-opacity="1"><g transform="translate(77.418593, 146.189488)"><g><path d="M 114.578125 -132.6875 L 114.578125 -11.46875 C 114.691406 -9.320312 115.582031 -7.679688 117.25 -6.546875 C 118.925781 -5.410156 120.835938 -4.660156 122.984375 -4.296875 C 125.140625 -3.941406 127.023438 -3.734375 128.640625 -3.671875 C 130.253906 -3.617188 131.0625 -3.59375 131.0625 -3.59375 L 131.0625 0 L 90.359375 0 L 90.359375 -3.59375 C 90.359375 -3.59375 91.195312 -3.617188 92.875 -3.671875 C 94.550781 -3.734375 96.460938 -3.972656 98.609375 -4.390625 C 100.765625 -4.804688 102.675781 -5.613281 104.34375 -6.8125 C 106.019531 -8.007812 106.859375 -9.742188 106.859375 -12.015625 L 106.859375 -129.09375 L 65.078125 -14.34375 L 63.109375 -14.34375 L 24.03125 -128.5625 L 24.203125 -12.015625 C 24.203125 -9.742188 25.035156 -8.007812 26.703125 -6.8125 C 28.378906 -5.613281 30.296875 -4.804688 32.453125 -4.390625 C 34.609375 -3.972656 36.519531 -3.734375 38.1875 -3.671875 C 39.863281 -3.617188 40.703125 -3.59375 40.703125 -3.59375 L 40.703125 0 L 3.9375 0 L 3.9375 -3.59375 C 3.9375 -3.59375 4.773438 -3.617188 6.453125 -3.671875 C 8.128906 -3.734375 10.039062 -3.972656 12.1875 -4.390625 C 14.34375 -4.804688 16.253906 -5.613281 17.921875 -6.8125 C 19.597656 -8.007812 20.4375 -9.742188 20.4375 -12.015625 L 20.4375 -132.6875 C 20.4375 -134.71875 19.660156 -136.238281 18.109375 -137.25 C 16.554688 -138.269531 14.765625 -138.988281 12.734375 -139.40625 C 10.703125 -139.820312 8.90625 -140.054688 7.34375 -140.109375 C 5.789062 -140.171875 5.015625 -140.203125 5.015625 -140.203125 L 5.015625 -143.796875 L 26.53125 -143.796875 L 66.34375 -27.4375 L 108.65625 -143.796875 L 131.0625 -143.796875 L 131.0625 -140.203125 C 131.0625 -140.203125 130.222656 -140.171875 128.546875 -140.109375 C 126.878906 -140.054688 124.96875 -139.820312 122.8125 -139.40625 C 120.664062 -138.988281 118.753906 -138.269531 117.078125 -137.25 C 115.410156 -136.238281 114.578125 -134.71875 114.578125 -132.6875 Z M 114.578125 -132.6875 "/></g></g></g><g fill="#b81327" fill-opacity="1"><g transform="translate(209.920812, 146.189488)"><g><path d="M 69.03125 -56.484375 L 51.8125 -125.6875 L 34.609375 -56.484375 Z M 52.53125 -143.96875 L 55.046875 -143.96875 L 87.5 -14.171875 C 87.613281 -13.691406 88.117188 -12.582031 89.015625 -10.84375 C 89.910156 -9.113281 91.523438 -7.472656 93.859375 -5.921875 C 96.191406 -4.367188 99.453125 -3.59375 103.640625 -3.59375 L 103.640625 0 L 64.90625 0 L 64.90625 -3.59375 C 69.332031 -3.59375 72.585938 -4.066406 74.671875 -5.015625 C 76.765625 -5.972656 78.171875 -7.140625 78.890625 -8.515625 C 79.609375 -9.890625 79.90625 -11.144531 79.78125 -12.28125 C 79.664062 -13.414062 79.546875 -14.160156 79.421875 -14.515625 L 69.921875 -53.078125 L 33.703125 -53.078125 L 24.203125 -14.34375 C 24.085938 -13.863281 24 -13.023438 23.9375 -11.828125 C 23.875 -10.640625 24.203125 -9.414062 24.921875 -8.15625 C 25.640625 -6.90625 27.070312 -5.832031 29.21875 -4.9375 C 31.375 -4.039062 34.546875 -3.59375 38.734375 -3.59375 L 38.734375 0 L 3.9375 0 L 3.9375 -3.59375 C 4.175781 -3.59375 4.984375 -3.617188 6.359375 -3.671875 C 7.734375 -3.734375 9.347656 -4.03125 11.203125 -4.5625 C 13.054688 -5.101562 14.816406 -6.117188 16.484375 -7.609375 C 18.160156 -9.109375 19.359375 -11.234375 20.078125 -13.984375 Z M 52.53125 -143.96875 "/></g></g></g></g></g><g transform="matrix(1, 0, 0, 1, 78, 73)"><g clip-path="url(#28e5c349b5)"><g fill="#b81327" fill-opacity="1"><g transform="translate(1.19544, 250.595253)"><g><path d="M 469.5 -178.03125 C 469.925781 -176.351562 469.820312 -175.410156 469.1875 -175.203125 C 468.769531 -174.992188 468.351562 -175.148438 467.9375 -175.671875 C 467.519531 -176.191406 467.101562 -176.660156 466.6875 -177.078125 C 462.09375 -183.140625 456.867188 -187.160156 451.015625 -189.140625 C 445.160156 -191.128906 438.265625 -192.226562 430.328125 -192.4375 C 421.335938 -192.644531 411.097656 -190.816406 399.609375 -186.953125 C 388.117188 -183.085938 375.945312 -177.65625 363.09375 -170.65625 C 350.25 -163.65625 337.140625 -155.710938 323.765625 -146.828125 C 310.390625 -137.953125 297.222656 -128.65625 284.265625 -118.9375 C 271.316406 -109.226562 258.992188 -99.671875 247.296875 -90.265625 C 227.648438 -74.390625 209 -59.34375 191.34375 -45.125 C 173.6875 -30.914062 156.707031 -18.273438 140.40625 -7.203125 C 132.257812 -1.566406 123.847656 3.441406 115.171875 7.828125 C 106.503906 12.222656 99.457031 14.421875 94.03125 14.421875 C 91.101562 14.421875 89.007812 13.632812 87.75 12.0625 C 86.5 10.5 85.875 8.671875 85.875 6.578125 C 85.875 2.816406 87.648438 -1.722656 91.203125 -7.046875 C 94.753906 -12.378906 100.921875 -19.742188 109.703125 -29.140625 C 120.359375 -40.847656 132.003906 -52.601562 144.640625 -64.40625 C 157.285156 -76.207031 169.457031 -87.753906 181.15625 -99.046875 C 187.21875 -104.890625 193.695312 -111.363281 200.59375 -118.46875 C 207.488281 -125.570312 214.066406 -132.625 220.328125 -139.625 C 226.597656 -146.625 231.820312 -152.632812 236 -157.65625 C 239.132812 -161.414062 242.21875 -165.332031 245.25 -169.40625 C 248.28125 -173.476562 250.945312 -177.8125 253.25 -182.40625 C 245.507812 -183.875 236.363281 -184.972656 225.8125 -185.703125 C 215.269531 -186.429688 203.207031 -186.484375 189.625 -185.859375 C 170.601562 -185.023438 150.539062 -181.472656 129.4375 -175.203125 C 108.332031 -168.929688 88.484375 -159.53125 69.890625 -147 C 50.253906 -133.625 36.460938 -119.675781 28.515625 -105.15625 C 20.578125 -90.632812 16.609375 -77.414062 16.609375 -65.5 C 16.609375 -56.519531 17.914062 -49.050781 20.53125 -43.09375 C 23.144531 -37.132812 26.226562 -32.378906 29.78125 -28.828125 C 33.332031 -25.273438 36.460938 -22.457031 39.171875 -20.375 C 40.015625 -19.957031 40.851562 -19.429688 41.6875 -18.796875 C 42.519531 -18.171875 42.832031 -17.648438 42.625 -17.234375 C 42.414062 -16.609375 41.890625 -16.347656 41.046875 -16.453125 C 40.210938 -16.554688 39.273438 -16.816406 38.234375 -17.234375 C 35.515625 -18.703125 31.960938 -21.210938 27.578125 -24.765625 C 23.191406 -28.316406 19.328125 -33.59375 15.984375 -40.59375 C 12.640625 -47.59375 10.96875 -56.734375 10.96875 -68.015625 C 10.96875 -75.117188 12.429688 -83.738281 15.359375 -93.875 C 18.285156 -104.007812 23.613281 -114.5625 31.34375 -125.53125 C 39.070312 -136.5 50.144531 -146.785156 64.5625 -156.390625 C 83.582031 -168.929688 103.75 -178.019531 125.0625 -183.65625 C 146.375 -189.300781 167.789062 -192.226562 189.3125 -192.4375 C 204.5625 -192.644531 217.671875 -192.070312 228.640625 -190.71875 C 239.609375 -189.363281 248.4375 -187.953125 255.125 -186.484375 C 256.375 -188.578125 257.421875 -190.976562 258.265625 -193.6875 C 258.679688 -194.738281 259.046875 -195.734375 259.359375 -196.671875 C 259.671875 -197.609375 260.035156 -198.078125 260.453125 -198.078125 C 260.867188 -198.078125 261.492188 -197.609375 262.328125 -196.671875 C 263.171875 -195.734375 263.800781 -194.738281 264.21875 -193.6875 C 265.257812 -190.5625 265.78125 -187.429688 265.78125 -184.296875 C 269.332031 -183.453125 273.507812 -182.300781 278.3125 -180.84375 C 283.125 -179.382812 286.570312 -177.921875 288.65625 -176.453125 C 291.375 -174.785156 292.316406 -173.21875 291.484375 -171.75 C 291.273438 -171.539062 290.75 -171.644531 289.90625 -172.0625 C 289.070312 -172.488281 287.925781 -173.015625 286.46875 -173.640625 C 283.957031 -174.890625 280.820312 -176.085938 277.0625 -177.234375 C 273.300781 -178.390625 269.226562 -179.382812 264.84375 -180.21875 C 264.21875 -177.289062 262.492188 -173.054688 259.671875 -167.515625 C 256.847656 -161.984375 252.929688 -155.664062 247.921875 -148.5625 C 239.554688 -137.28125 230.566406 -126.625 220.953125 -116.59375 C 211.347656 -106.5625 200.484375 -95.695312 188.359375 -84 C 177.703125 -73.550781 166.101562 -62.945312 153.5625 -52.1875 C 141.03125 -41.425781 129.539062 -31.238281 119.09375 -21.625 C 109.90625 -13.269531 103.328125 -6.945312 99.359375 -2.65625 C 95.390625 1.625 93.40625 4.910156 93.40625 7.203125 C 93.40625 8.671875 94.445312 9.40625 96.53125 9.40625 C 98.207031 9.40625 102.492188 7.890625 109.390625 4.859375 C 116.285156 1.828125 125.6875 -3.757812 137.59375 -11.90625 C 147.414062 -18.382812 157.914062 -26.0625 169.09375 -34.9375 C 180.269531 -43.820312 191.65625 -53.125 203.25 -62.84375 C 214.851562 -72.5625 226.191406 -82.015625 237.265625 -91.203125 C 254.609375 -105.828125 272.210938 -119.984375 290.078125 -133.671875 C 307.941406 -147.359375 325.4375 -159.582031 342.5625 -170.34375 C 359.695312 -181.101562 375.890625 -189.566406 391.140625 -195.734375 C 406.398438 -201.898438 420.085938 -204.664062 432.203125 -204.03125 C 452.890625 -202.988281 465.320312 -194.320312 469.5 -178.03125 Z M 469.5 -178.03125 "/></g></g></g></g></g></svg>